<svg xmlns="http://www.w3.org/2000/svg" version="1.1" xmlns:xlink="http://www.w3.org/1999/xlink" xmlns:svgjs="http://svgjs.com/svgjs" width="1440" height="560" preserveAspectRatio="none" viewBox="0 0 1440 560"><g mask="url(&quot;#SvgjsMask1002&quot;)" fill="none"><rect width="1440" height="560" x="0" y="0" fill="rgba(3, 0, 25, 0.6627450980392157)"></rect><path d="M 0,93 C 57.6,110.8 172.8,199.4 288,182 C 403.2,164.6 460.8,-8.2 576,6 C 691.2,20.2 748.8,234.2 864,253 C 979.2,271.8 1036.8,107.8 1152,100 C 1267.2,92.2 1382.4,191.2 1440,214L1440 560L0 560z" fill="rgba(255, 255, 255, 1)"></path><path d="M 0,462 C 96,429.2 288,286.6 480,298 C 672,309.4 768,514.8 960,519 C 1152,523.2 1344,359 1440,319L1440 560L0 560z" fill="rgba(3, 0, 25, 0.604313725490196)"></path></g><defs><mask id="SvgjsMask1002"><rect width="1440" height="560" fill="#ffffff"></rect></mask></defs></svg>